<svg xmlns="http://www.w3.org/2000/svg" width="16" height="17" viewBox="0 0 16 17" fill="none">
  <path d="M8.00002 4.50001C8.73335 4.50001 9.33335 5.1 9.33335 5.83334C9.33335 6.56667 8.73335 7.16667 8.00002 7.16667C7.26669 7.16667 6.66669 6.56667 6.66669 5.83334C6.66669 5.1 7.26669 4.50001 8.00002 4.50001ZM8.00002 11.1667C9.80002 11.1667 11.8667 12.0267 12 12.5H4.00002C4.15335 12.02 6.20669 11.1667 8.00002 11.1667ZM8.00002 3.16667C6.52669 3.16667 5.33335 4.36001 5.33335 5.83334C5.33335 7.30667 6.52669 8.5 8.00002 8.5C9.47335 8.5 10.6667 7.30667 10.6667 5.83334C10.6667 4.36001 9.47335 3.16667 8.00002 3.16667ZM8.00002 9.83334C6.22002 9.83334 2.66669 10.7267 2.66669 12.5V13.8333H13.3334V12.5C13.3334 10.7267 9.78002 9.83334 8.00002 9.83334Z" fill="#243030"/>
</svg>