<svg width="36" height="36" viewBox="0 0 36 36" fill="none" xmlns="http://www.w3.org/2000/svg">
<path fillRule="evenodd" clipRule="evenodd" d="M14.906 11.2919L15.1426 11.3653V13.4379L14.906 13.4026C13.551 13.2001 13.0245 13.6475 13.0245 15.0012V15.6049L14.4103 15.5874C16.6028 15.5597 16.8081 15.4021 16.8455 13.7165L16.8638 12.894H19.1535V15.598H21.0463V17.7612H19.1535V19.806C19.1535 22.2682 19.1569 22.2863 19.6492 22.5069C19.8674 22.6046 20.4134 22.632 20.8331 22.5661L21.048 22.5324L21.0238 24.585L20.7534 24.6716C19.3454 25.1226 17.5294 24.5434 16.9608 23.462C16.6501 22.8709 16.6581 22.9493 16.6314 20.2398L16.6073 17.7837L13.0245 17.7601V24.7013H10.4558V17.7161H8.87846V15.598H10.4558V14.9478C10.4558 12.1944 12.4732 10.5371 14.906 11.2919ZM6.01677 15.4236C7.17438 15.6239 8.05182 16.4557 8.43474 17.7161C8.537 18.0527 8.53749 18.0681 8.55214 21.3777L8.56683 24.7013H6.0393L6.03854 21.9411C6.03768 18.9321 6.02754 18.7888 5.78369 18.3408C5.30171 17.4552 3.80628 17.3129 3.08504 18.0839C2.58129 18.6224 2.56922 18.7139 2.56922 21.9817V24.7027L0.0229838 24.6788L0 15.598H2.47908V16.6361L2.82835 16.2845C3.61475 15.4928 4.70873 15.1974 6.01677 15.4236ZM27.2175 15.4629C29.4425 16.0522 30.7676 18.1553 30.4364 20.5715L30.4078 20.7806H23.7503V20.9172C23.7503 22.9428 27.2518 23.5396 28.1048 21.6594C28.1498 21.5602 28.1909 21.472 28.1961 21.4634C28.2425 21.387 30.3281 22.0681 30.3039 22.1518C29.2934 25.6464 23.6704 25.9266 21.8201 22.5746C19.7319 18.7917 23.0882 14.3692 27.2175 15.4629ZM25.5304 17.34C24.6566 17.4805 23.958 18.1158 23.8159 18.8991L23.7853 19.0681H25.8634C28.2417 19.0681 28.0106 19.1214 27.8524 18.609C27.5767 17.7167 26.579 17.1714 25.5304 17.34Z" fill="white"/>
<path d="M34.5213 12.7363C34.4191 12.56 34.1544 12.0706 33.9208 11.6259C33.718 11.2398 33.6121 11.179 33.5198 11.3956C33.4908 11.4638 33.4435 11.55 33.4148 11.5871C33.3861 11.6243 33.2785 11.8119 33.1757 12.004C33.0728 12.1961 32.9095 12.5003 32.8125 12.68C31.7093 14.7258 31.5063 15.1186 31.5314 15.1592C31.5497 15.1888 31.5384 15.1926 31.5009 15.1694C31.4572 15.1424 31.4491 15.1533 31.4709 15.2099C31.4872 15.2524 31.4844 15.2773 31.4647 15.2651C31.4108 15.2318 31.2607 15.5377 31.2916 15.6181C31.3139 15.6763 31.414 15.6881 31.8832 15.6881H32.4479V18.6437C32.4479 20.2693 32.4631 21.5915 32.4817 21.582C33.2914 21.1677 33.9619 21.1354 34.6191 21.479L34.8358 21.5923L34.859 15.7107L35.4218 15.6881C35.9101 15.6686 35.9866 15.6553 35.9996 15.5872C36.019 15.4855 35.3262 14.1993 35.2705 14.2338C35.2472 14.2482 35.2428 14.2362 35.2608 14.2071C35.2787 14.178 35.2543 14.0887 35.2064 14.0086C35.1585 13.9285 35.0024 13.6399 34.8595 13.3672C34.7167 13.0946 34.5645 12.8107 34.5213 12.7363Z" fill="#FF5B35"/>
<path d="M34.1464 22.7435C34.117 22.7373 34.0358 22.7089 33.966 22.6803C33.7066 22.574 33.1803 22.6557 33.0067 22.8292C32.9685 22.8674 32.9209 22.8987 32.9009 22.8987C32.7435 22.8987 32.5156 23.4162 32.5163 23.7717C32.519 25.0213 34.1203 25.3978 34.6858 24.2818C34.9563 23.7479 34.6404 22.8469 34.1464 22.7435Z" fill="#FF5B35"/>
</svg>
