<svg xmlns="http://www.w3.org/2000/svg" width="45" height="24" viewBox="0 0 45 24" fill="none">
<path d="M4.63634 8.7716V15.2727C4.63634 20.0927 8.54367 24 13.3636 24H15.5454V19.6364H13.3636C10.9536 19.6364 8.99998 17.6827 8.99998 15.2727V4.4508C8.0414 6.31276 6.50894 7.83094 4.63634 8.7716Z" fill="#00BF8C"/>
<path d="M0.272705 8.72701V4.36364C2.68267 4.36364 4.63634 2.40997 4.63634 0H8.99972C8.99709 0.346031 8.97448 0.687305 8.93299 1.02273C8.43996 5.00812 5.28083 8.16726 1.29543 8.66028C0.96001 8.70178 0.618736 8.72439 0.272705 8.72701Z" fill="#00BF8C"/>
<path d="M10.0909 13.0909V8.72727H15.5454V13.0909H10.0909Z" fill="#00BF8C"/>
<path d="M22.8521 14.1818V9.25374H20.6426V8.72727H25.6311V9.25374H23.4217V14.1818H22.8521Z" fill="#0A1214"/>
<path d="M28.5776 14.1818V8.72727H29.1472V14.1818H28.5776Z" fill="#0A1214"/>
<path d="M32.0937 14.1818V8.72727H36.9614V9.25374H32.6634V11.187H35.8653V11.7135H32.6634V13.6554H36.9614V14.1818H32.0937Z" fill="#0A1214"/>
<path d="M39.9079 14.1818V8.72727H43.6191C44.4562 8.72727 45 9.32279 45 10.229C45 11.0575 44.5426 11.6703 43.7917 11.7048L43.4033 11.7221L44.8015 14.1818H44.1714L42.7819 11.7135H40.4775V14.1818H39.9079ZM40.4775 11.187H43.6191C44.1283 11.187 44.4304 10.8331 44.4304 10.2376C44.4304 9.64212 44.111 9.25374 43.6191 9.25374H40.4775V11.187Z" fill="#0A1214"/>
<path d="M24.2796 24C22.1772 24 20.6426 22.4896 20.6426 20.1818C20.6426 17.8739 22.1772 16.3636 24.2796 16.3636C26.3941 16.3636 27.9286 17.8739 27.9286 20.1818C27.9286 22.4896 26.3941 24 24.2796 24ZM24.2796 23.1663C25.8745 23.1663 27.0587 21.9942 27.0587 20.1818C27.0587 18.3573 25.8745 17.1732 24.2796 17.1732C22.6967 17.1732 21.5247 18.3573 21.5247 20.1697C21.5247 21.9942 22.6967 23.1663 24.2796 23.1663Z" fill="#0A1214"/>
<path d="M29.565 24V16.3636H30.4108L35.7514 22.828V16.3636H36.5489V24H35.691L30.3625 17.5236V24H29.565Z" fill="#0A1214"/>
<path d="M38.1852 24V16.3636H45V17.1007H38.9827V19.8072H43.4655V20.5443H38.9827V23.2629H45V24H38.1852Z" fill="#0A1214"/>
</svg>